<svg xmlns="http://www.w3.org/2000/svg" width="1024" height="1536" viewBox="0 0 1024 1536">
<rect width="1024" height="1536" fill="#000"></rect>
<g fill="#6b1515" fill-rule="evenodd"><path d="M 557 240 L 552 242 L 556 243 L 557 252 L 554 253 L 554 285 L 539 289 L 532 287 L 517 293 L 508 293 L 507 289 L 494 292 L 478 288 L 477 284 L 464 285 L 460 280 L 461 272 L 464 271 L 461 260 L 465 243 L 462 241 L 450 241 L 435 251 L 411 260 L 406 259 L 397 269 L 388 275 L 382 275 L 377 284 L 357 284 L 356 281 L 352 281 L 351 284 L 339 282 L 338 285 L 332 283 L 314 288 L 290 309 L 290 317 L 284 321 L 284 338 L 279 342 L 283 344 L 283 351 L 278 352 L 277 349 L 277 356 L 271 358 L 267 364 L 267 370 L 261 374 L 252 399 L 254 407 L 251 408 L 251 415 L 255 416 L 254 432 L 258 433 L 256 456 L 252 457 L 255 458 L 255 480 L 252 481 L 256 482 L 257 493 L 252 494 L 253 499 L 249 500 L 242 517 L 238 536 L 240 545 L 237 546 L 240 569 L 237 571 L 242 573 L 242 579 L 239 580 L 240 584 L 244 585 L 242 590 L 251 600 L 253 617 L 256 618 L 254 624 L 257 643 L 260 645 L 260 679 L 257 680 L 260 681 L 259 697 L 255 698 L 258 699 L 258 708 L 254 709 L 257 712 L 257 720 L 253 721 L 256 728 L 252 729 L 255 730 L 257 749 L 261 749 L 264 754 L 264 762 L 273 767 L 283 765 L 284 768 L 292 768 L 293 772 L 298 772 L 299 768 L 307 768 L 308 771 L 310 766 L 316 766 L 317 763 L 325 764 L 329 754 L 335 755 L 338 749 L 335 738 L 338 726 L 336 719 L 339 718 L 339 714 L 319 685 L 311 679 L 311 675 L 314 674 L 312 663 L 309 662 L 309 627 L 312 626 L 313 620 L 312 607 L 324 598 L 324 592 L 334 575 L 338 574 L 336 568 L 340 566 L 338 559 L 341 558 L 341 550 L 337 546 L 339 538 L 336 530 L 332 528 L 329 504 L 341 489 L 341 470 L 347 467 L 352 451 L 359 452 L 362 462 L 374 480 L 391 497 L 391 501 L 396 502 L 398 509 L 403 510 L 401 516 L 405 518 L 405 550 L 402 552 L 403 557 L 407 558 L 405 564 L 410 566 L 410 575 L 413 576 L 413 588 L 410 589 L 412 599 L 408 600 L 409 610 L 404 622 L 400 623 L 403 624 L 397 650 L 393 651 L 390 661 L 386 662 L 382 676 L 384 681 L 380 682 L 377 688 L 379 693 L 374 695 L 376 700 L 368 709 L 367 722 L 362 724 L 364 729 L 360 730 L 352 768 L 355 769 L 355 773 L 351 774 L 354 775 L 354 780 L 350 781 L 353 782 L 352 796 L 348 797 L 351 800 L 350 824 L 346 825 L 349 828 L 349 852 L 346 853 L 350 854 L 350 860 L 347 862 L 349 872 L 353 873 L 351 880 L 355 892 L 360 894 L 360 904 L 366 906 L 364 911 L 369 913 L 368 918 L 374 927 L 379 928 L 378 933 L 387 939 L 389 949 L 386 970 L 388 1003 L 381 1005 L 380 1014 L 374 1016 L 376 1021 L 372 1028 L 368 1028 L 364 1038 L 367 1039 L 365 1049 L 360 1050 L 358 1059 L 361 1060 L 360 1072 L 356 1073 L 356 1085 L 360 1086 L 361 1097 L 358 1098 L 363 1100 L 363 1104 L 360 1105 L 366 1109 L 365 1118 L 369 1118 L 374 1127 L 372 1134 L 376 1134 L 381 1142 L 383 1158 L 380 1159 L 381 1164 L 386 1166 L 386 1172 L 383 1173 L 387 1174 L 387 1178 L 384 1180 L 386 1189 L 391 1191 L 391 1197 L 388 1198 L 393 1202 L 393 1208 L 390 1210 L 395 1212 L 396 1227 L 393 1228 L 396 1228 L 398 1242 L 394 1243 L 398 1244 L 398 1261 L 395 1262 L 396 1284 L 387 1294 L 385 1308 L 382 1309 L 376 1326 L 360 1340 L 349 1356 L 352 1359 L 352 1370 L 359 1376 L 400 1376 L 409 1380 L 413 1376 L 430 1374 L 435 1358 L 443 1358 L 444 1361 L 445 1356 L 460 1355 L 457 1345 L 462 1341 L 458 1339 L 456 1311 L 459 1310 L 456 1309 L 458 1304 L 449 1300 L 450 1281 L 445 1272 L 446 1241 L 450 1240 L 447 1238 L 447 1229 L 451 1228 L 448 1219 L 452 1215 L 449 1214 L 449 1210 L 453 1206 L 450 1204 L 451 1197 L 454 1196 L 452 1188 L 455 1187 L 453 1174 L 457 1172 L 455 1166 L 458 1165 L 455 1164 L 455 1160 L 459 1159 L 456 1158 L 456 1151 L 461 1147 L 457 1146 L 457 1136 L 470 1126 L 468 1121 L 472 1116 L 476 1116 L 475 1108 L 480 1107 L 482 1099 L 479 1098 L 479 1093 L 483 1092 L 483 1077 L 479 1076 L 480 1062 L 476 1061 L 477 1052 L 457 1002 L 475 978 L 479 963 L 476 962 L 479 943 L 484 941 L 480 940 L 483 923 L 488 922 L 485 921 L 490 910 L 487 909 L 487 890 L 491 889 L 487 888 L 487 882 L 491 878 L 499 846 L 501 789 L 505 786 L 503 781 L 506 780 L 503 779 L 503 775 L 507 771 L 504 769 L 504 755 L 507 754 L 503 753 L 503 746 L 506 744 L 502 743 L 505 736 L 501 735 L 501 730 L 513 727 L 520 730 L 520 734 L 516 735 L 519 736 L 519 741 L 515 742 L 518 744 L 518 750 L 514 751 L 517 754 L 517 766 L 514 770 L 518 771 L 518 778 L 515 779 L 519 780 L 520 791 L 517 792 L 520 793 L 520 832 L 524 859 L 521 860 L 522 864 L 526 865 L 524 871 L 528 883 L 529 880 L 534 881 L 534 901 L 531 902 L 535 907 L 535 911 L 532 912 L 535 914 L 534 925 L 539 927 L 542 936 L 544 956 L 541 957 L 545 958 L 544 968 L 548 969 L 553 984 L 551 990 L 556 999 L 560 1000 L 558 1015 L 550 1035 L 552 1040 L 547 1043 L 544 1051 L 546 1056 L 542 1057 L 539 1068 L 542 1069 L 541 1090 L 538 1093 L 541 1094 L 541 1108 L 548 1114 L 546 1119 L 557 1128 L 561 1155 L 564 1155 L 566 1165 L 563 1166 L 567 1167 L 565 1179 L 568 1180 L 568 1204 L 571 1205 L 573 1217 L 570 1226 L 574 1227 L 574 1237 L 571 1239 L 575 1240 L 576 1247 L 572 1256 L 576 1257 L 577 1272 L 571 1273 L 572 1279 L 568 1280 L 568 1284 L 572 1286 L 572 1300 L 562 1308 L 565 1309 L 562 1352 L 572 1359 L 577 1357 L 578 1361 L 580 1358 L 586 1358 L 588 1371 L 603 1376 L 644 1377 L 645 1380 L 649 1375 L 660 1376 L 661 1379 L 663 1374 L 669 1375 L 671 1350 L 645 1324 L 635 1296 L 627 1286 L 626 1270 L 623 1266 L 624 1221 L 628 1201 L 633 1198 L 631 1186 L 633 1179 L 637 1178 L 634 1177 L 634 1171 L 639 1168 L 639 1147 L 644 1145 L 641 1144 L 641 1139 L 648 1135 L 647 1126 L 651 1118 L 656 1117 L 658 1112 L 655 1111 L 659 1092 L 664 1089 L 661 1088 L 660 1062 L 663 1061 L 658 1058 L 656 1046 L 659 1045 L 655 1044 L 655 1033 L 650 1021 L 645 1020 L 646 1015 L 638 1001 L 634 1000 L 634 993 L 639 990 L 634 987 L 635 972 L 639 971 L 634 970 L 633 939 L 641 935 L 640 930 L 646 928 L 655 914 L 653 909 L 659 897 L 664 896 L 662 890 L 667 888 L 664 887 L 666 877 L 671 876 L 668 869 L 670 860 L 674 858 L 671 857 L 671 851 L 675 850 L 672 848 L 675 833 L 672 832 L 671 813 L 674 809 L 670 808 L 669 791 L 672 790 L 668 789 L 671 782 L 660 730 L 653 710 L 650 710 L 646 703 L 647 697 L 642 690 L 633 656 L 624 650 L 621 639 L 623 633 L 619 632 L 616 621 L 618 614 L 610 607 L 612 596 L 608 579 L 611 578 L 611 567 L 615 566 L 618 556 L 616 551 L 619 550 L 616 549 L 616 529 L 619 528 L 620 516 L 617 515 L 617 511 L 628 496 L 649 477 L 658 461 L 663 460 L 662 452 L 670 449 L 676 475 L 682 483 L 680 489 L 694 507 L 688 521 L 688 530 L 684 531 L 681 540 L 681 568 L 685 570 L 684 577 L 688 578 L 692 591 L 699 596 L 699 601 L 703 602 L 708 614 L 709 627 L 712 628 L 712 659 L 709 660 L 707 672 L 710 678 L 706 679 L 704 688 L 699 689 L 695 698 L 690 700 L 683 711 L 684 754 L 690 752 L 691 760 L 697 765 L 705 763 L 706 767 L 717 768 L 718 771 L 723 771 L 724 768 L 731 768 L 732 771 L 737 764 L 743 764 L 744 767 L 747 763 L 754 764 L 766 737 L 765 724 L 768 722 L 763 712 L 763 704 L 766 703 L 763 702 L 760 689 L 760 674 L 763 673 L 762 640 L 765 639 L 763 632 L 766 631 L 765 621 L 768 620 L 765 609 L 770 608 L 773 602 L 771 597 L 776 596 L 775 587 L 780 586 L 777 585 L 777 580 L 782 577 L 780 559 L 784 553 L 775 506 L 764 494 L 765 452 L 768 451 L 764 450 L 764 444 L 767 443 L 763 442 L 762 433 L 764 429 L 768 429 L 769 424 L 766 422 L 766 418 L 770 417 L 769 400 L 766 399 L 768 394 L 753 363 L 738 351 L 737 331 L 740 330 L 732 318 L 732 310 L 727 309 L 722 298 L 707 288 L 685 282 L 669 284 L 668 281 L 661 281 L 660 284 L 642 284 L 641 279 L 615 265 L 614 262 Z M 463 112 L 460 130 L 463 131 L 462 142 L 466 149 L 472 139 L 473 119 L 481 113 L 485 113 L 486 116 L 488 112 L 500 115 L 505 111 L 514 111 L 515 114 L 526 112 L 527 115 L 534 113 L 535 116 L 543 117 L 547 120 L 545 125 L 549 130 L 550 148 L 554 149 L 554 145 L 557 144 L 555 138 L 558 137 L 556 131 L 559 130 L 558 112 L 541 91 L 523 86 L 522 83 L 517 85 L 515 82 L 504 82 L 503 85 L 474 93 L 474 97 Z"></path></g>
<g fill="#e8dcdc" fill-rule="evenodd"><path d="M 448 1039 L 460 1077 L 462 1096 L 459 1071 Z M 575 1032 L 570 1043 L 561 1073 L 558 1095 L 558 1110 L 558 1097 L 562 1071 L 568 1049 Z M 636 1010 L 646 1079 L 646 1117 L 646 1074 Z M 457 922 L 454 930 L 443 944 L 455 929 Z M 563 920 L 568 932 L 579 945 L 567 930 Z M 579 828 L 573 842 L 565 870 L 562 891 L 562 914 L 562 895 L 564 877 L 568 859 Z M 440 824 L 451 854 L 456 873 L 459 893 L 459 911 L 459 891 L 456 871 L 448 843 Z M 402 696 L 388 783 L 385 834 L 386 849 L 388 783 L 396 740 Z M 477 658 L 493 660 L 527 660 L 545 658 Z M 499 440 L 474 443 L 460 448 L 479 442 Z M 409 438 L 390 450 L 371 472 L 392 449 Z M 364 414 L 365 427 L 362 434 L 355 442 L 367 427 L 365 427 Z M 664 402 L 661 405 L 656 416 L 656 429 L 666 443 L 656 428 L 656 416 L 661 405 Z M 717 395 L 724 442 L 724 466 L 723 429 Z M 486 232 L 489 253 L 492 262 L 506 290 L 492 261 L 488 247 Z M 501 83 L 486 87 L 475 93 L 468 100 L 461 113 L 460 126 L 465 153 L 460 153 L 458 155 L 457 168 L 462 181 L 468 187 L 469 193 L 469 224 L 467 237 L 434 247 L 417 254 L 391 269 L 376 281 L 330 284 L 322 286 L 307 293 L 298 300 L 290 310 L 282 329 L 279 348 L 269 362 L 257 383 L 252 406 L 252 419 L 256 435 L 252 462 L 254 492 L 246 508 L 241 524 L 237 552 L 240 582 L 244 593 L 252 607 L 259 648 L 259 671 L 255 703 L 253 739 L 265 762 L 276 767 L 283 766 L 291 771 L 306 771 L 315 765 L 320 766 L 333 756 L 337 750 L 336 728 L 338 714 L 330 700 L 313 679 L 313 672 L 310 659 L 310 632 L 313 610 L 330 588 L 336 577 L 339 567 L 339 541 L 328 510 L 341 488 L 350 450 L 352 435 L 352 393 L 350 370 L 358 368 L 362 370 L 362 381 L 364 390 L 369 401 L 377 413 L 392 427 L 411 436 L 433 437 L 472 424 L 482 422 L 509 421 L 510 469 L 507 471 L 473 478 L 447 480 L 443 471 L 444 439 L 441 453 L 441 477 L 424 476 L 415 472 L 405 461 L 405 451 L 400 466 L 399 485 L 402 496 L 407 505 L 414 512 L 421 516 L 434 517 L 447 515 L 453 522 L 449 545 L 450 556 L 453 563 L 460 571 L 463 591 L 470 617 L 469 619 L 439 615 L 436 612 L 426 592 L 412 574 L 405 556 L 403 512 L 399 505 L 371 478 L 364 468 L 357 450 L 362 467 L 368 477 L 398 507 L 402 514 L 402 547 L 404 558 L 411 574 L 411 593 L 409 602 L 405 607 L 394 652 L 392 655 L 388 657 L 383 677 L 361 729 L 352 772 L 348 801 L 347 856 L 351 878 L 358 898 L 365 912 L 383 938 L 385 949 L 382 975 L 384 1002 L 374 1017 L 362 1046 L 357 1070 L 357 1087 L 361 1106 L 369 1126 L 377 1140 L 393 1217 L 396 1251 L 396 1264 L 393 1269 L 392 1287 L 389 1291 L 376 1327 L 358 1343 L 350 1354 L 350 1372 L 351 1377 L 353 1378 L 418 1378 L 432 1372 L 437 1362 L 461 1353 L 462 1344 L 459 1330 L 458 1307 L 452 1296 L 452 1278 L 447 1271 L 449 1232 L 454 1183 L 461 1137 L 474 1119 L 479 1108 L 482 1093 L 482 1075 L 475 1048 L 462 1017 L 460 1004 L 469 991 L 476 972 L 489 912 L 489 891 L 494 878 L 502 846 L 504 809 L 503 788 L 506 775 L 506 750 L 503 733 L 505 731 L 516 731 L 517 739 L 515 750 L 515 773 L 518 787 L 517 814 L 519 845 L 525 872 L 529 885 L 532 889 L 533 915 L 544 966 L 553 993 L 561 1004 L 557 1021 L 542 1059 L 538 1080 L 539 1096 L 543 1112 L 552 1127 L 559 1135 L 567 1183 L 572 1230 L 574 1270 L 569 1278 L 570 1294 L 565 1300 L 563 1306 L 560 1354 L 584 1361 L 590 1372 L 603 1378 L 626 1380 L 671 1377 L 672 1356 L 666 1346 L 644 1324 L 635 1298 L 630 1289 L 628 1271 L 625 1265 L 625 1249 L 627 1223 L 644 1140 L 655 1118 L 663 1091 L 663 1065 L 660 1050 L 652 1027 L 636 1000 L 638 993 L 637 939 L 656 911 L 662 899 L 670 876 L 674 853 L 674 818 L 669 775 L 659 729 L 649 702 L 640 685 L 633 659 L 630 654 L 632 658 L 632 665 L 636 679 L 656 723 L 662 743 L 670 795 L 673 835 L 671 862 L 664 888 L 650 917 L 630 944 L 610 912 L 612 900 L 623 881 L 635 849 L 635 807 L 633 782 L 623 717 L 618 696 L 633 786 L 634 851 L 626 871 L 613 894 L 589 815 L 577 739 L 577 721 L 584 697 L 589 671 L 609 660 L 628 655 L 616 609 L 612 603 L 610 594 L 610 574 L 615 564 L 618 553 L 618 517 L 626 503 L 640 491 L 656 473 L 662 461 L 664 451 L 662 458 L 654 472 L 651 473 L 649 471 L 652 474 L 648 480 L 634 494 L 628 498 L 618 510 L 616 555 L 608 575 L 592 595 L 585 611 L 582 614 L 552 618 L 551 616 L 558 589 L 560 574 L 565 568 L 574 568 L 565 567 L 569 561 L 571 554 L 571 537 L 568 521 L 573 515 L 587 517 L 600 516 L 612 507 L 618 497 L 621 487 L 621 467 L 616 452 L 617 458 L 606 471 L 595 476 L 579 477 L 578 473 L 580 462 L 577 439 L 578 469 L 574 480 L 539 477 L 514 471 L 511 468 L 511 423 L 513 421 L 542 422 L 587 437 L 609 436 L 631 451 L 644 465 L 632 451 L 612 438 L 611 436 L 626 429 L 643 414 L 656 392 L 659 379 L 659 371 L 661 369 L 671 370 L 669 396 L 670 444 L 679 485 L 686 500 L 693 510 L 681 543 L 681 565 L 684 575 L 690 587 L 708 611 L 711 632 L 711 656 L 707 680 L 690 701 L 683 713 L 683 721 L 685 728 L 684 752 L 698 765 L 705 765 L 711 770 L 715 771 L 719 769 L 729 771 L 739 766 L 748 766 L 753 764 L 758 759 L 768 739 L 765 697 L 762 684 L 762 650 L 769 607 L 777 592 L 783 567 L 783 548 L 781 530 L 774 506 L 769 497 L 767 489 L 769 471 L 768 454 L 766 447 L 766 432 L 769 419 L 768 396 L 761 377 L 741 346 L 739 328 L 734 315 L 726 303 L 717 295 L 705 288 L 692 284 L 676 282 L 647 282 L 630 269 L 597 251 L 582 245 L 555 238 L 553 236 L 551 219 L 551 193 L 552 186 L 555 185 L 559 179 L 563 166 L 562 155 L 560 153 L 555 153 L 559 124 L 557 112 L 549 99 L 540 91 L 523 84 Z M 560 1351 L 562 1350 L 575 1355 L 582 1356 L 585 1359 L 584 1360 L 564 1354 Z M 460 1351 L 457 1354 L 441 1358 L 438 1360 L 436 1359 L 439 1356 L 459 1350 Z M 561 1348 L 563 1347 L 583 1354 L 578 1355 L 563 1350 Z M 455 1349 L 458 1347 L 460 1348 L 458 1350 Z M 454 1301 L 457 1307 L 460 1344 L 456 1347 L 437 1353 L 434 1368 L 429 1373 L 415 1378 L 404 1379 L 354 1377 L 351 1375 L 352 1360 L 359 1362 L 381 1364 L 418 1364 L 422 1362 L 429 1354 L 436 1330 L 446 1305 L 452 1300 Z M 568 1299 L 576 1306 L 586 1331 L 593 1355 L 599 1362 L 605 1364 L 642 1364 L 670 1360 L 670 1375 L 667 1377 L 613 1379 L 605 1378 L 591 1372 L 587 1365 L 585 1353 L 567 1348 L 561 1344 L 564 1324 L 564 1306 Z M 582 1290 L 591 1282 L 601 1278 L 615 1278 L 624 1282 L 632 1292 L 645 1327 L 671 1354 L 671 1358 L 665 1361 L 629 1364 L 609 1364 L 602 1363 L 598 1360 L 592 1351 L 586 1329 L 575 1304 Z M 440 1291 L 446 1302 L 446 1305 L 435 1330 L 429 1352 L 421 1362 L 378 1363 L 358 1361 L 351 1358 L 351 1353 L 377 1327 L 388 1295 L 396 1283 L 407 1278 L 422 1278 L 432 1283 Z M 394 1268 L 400 1264 L 424 1263 L 435 1265 L 445 1270 L 451 1279 L 450 1300 L 448 1301 L 445 1298 L 442 1291 L 434 1282 L 424 1277 L 407 1276 L 394 1282 Z M 563 1138 L 578 1154 L 579 1157 L 580 1191 L 584 1230 L 584 1264 L 578 1268 L 575 1266 L 575 1244 L 566 1166 L 562 1144 Z M 457 1138 L 458 1148 L 446 1243 L 445 1267 L 443 1268 L 437 1264 L 437 1235 L 441 1189 L 442 1155 Z M 635 1004 L 646 1020 L 654 1038 L 660 1061 L 662 1084 L 655 1111 L 642 1138 L 626 1215 L 624 1236 L 624 1265 L 627 1268 L 629 1282 L 627 1283 L 620 1278 L 612 1276 L 603 1276 L 595 1278 L 587 1282 L 582 1287 L 573 1302 L 570 1298 L 570 1279 L 577 1269 L 598 1263 L 621 1264 L 601 1261 L 618 1201 L 608 1232 L 601 1260 L 599 1262 L 586 1264 L 582 1203 L 582 1179 L 580 1165 L 584 1096 L 582 1125 L 578 1153 L 551 1122 L 543 1107 L 540 1093 L 540 1078 L 542 1066 L 563 1006 L 576 1018 L 585 1038 L 588 1049 L 586 1081 L 589 1050 L 585 1033 L 580 1021 L 581 1020 L 588 1026 L 617 1039 L 616 1150 L 618 1151 L 618 1037 L 629 1011 Z M 387 1003 L 400 1029 L 403 1038 L 403 1152 L 405 1150 L 404 1039 L 410 1035 L 432 1027 L 440 1020 L 441 1021 L 437 1029 L 433 1043 L 433 1049 L 438 1031 L 443 1020 L 457 1006 L 459 1008 L 460 1014 L 467 1031 L 480 1073 L 480 1096 L 475 1112 L 464 1129 L 443 1153 L 440 1141 L 437 1102 L 441 1159 L 439 1181 L 437 1248 L 435 1265 L 422 1262 L 420 1260 L 416 1242 L 404 1204 L 420 1261 L 407 1262 L 401 1264 L 397 1263 L 396 1224 L 381 1145 L 368 1117 L 360 1094 L 359 1071 L 363 1051 L 371 1028 L 383 1008 L 384 1015 L 379 1039 L 374 1078 L 375 1119 L 375 1074 L 384 1011 Z M 432 970 L 435 973 L 431 1016 L 432 1026 L 405 1036 L 397 995 L 396 977 L 400 976 L 409 979 L 419 979 L 433 976 L 419 979 L 410 979 L 397 976 L 396 971 L 403 968 L 425 968 Z M 589 970 L 600 967 L 613 967 L 623 969 L 625 971 L 624 996 L 619 1017 L 617 1035 L 615 1037 L 596 1029 L 590 1025 L 586 977 L 592 976 L 596 978 L 613 978 L 621 976 L 613 978 L 597 978 L 588 976 L 586 972 Z M 387 943 L 393 951 L 395 991 L 400 1016 L 399 1025 L 389 1006 L 385 993 L 384 979 Z M 634 942 L 636 993 L 633 1003 L 621 1024 L 620 1021 L 627 980 L 627 956 L 628 950 Z M 541 939 L 552 953 L 562 959 L 569 961 L 578 961 L 582 958 L 583 959 L 589 1021 L 588 1025 L 569 1009 L 557 996 L 551 984 L 544 961 L 540 942 Z M 480 939 L 480 948 L 472 979 L 468 989 L 462 998 L 433 1025 L 432 1020 L 435 999 L 437 961 L 439 959 L 445 962 L 452 961 L 464 956 L 476 945 Z M 608 913 L 628 945 L 626 955 L 626 967 L 624 969 L 615 967 L 599 967 L 586 971 L 584 967 L 584 953 L 593 935 Z M 412 913 L 422 926 L 436 951 L 437 965 L 435 972 L 429 969 L 419 967 L 407 967 L 397 970 L 396 969 L 393 948 L 394 943 Z M 520 798 L 526 817 L 538 844 L 538 850 L 533 868 L 533 877 L 531 881 L 528 877 L 520 843 L 518 817 L 518 801 Z M 502 796 L 503 811 L 501 840 L 496 865 L 490 882 L 488 880 L 488 870 L 482 849 L 482 844 L 497 812 L 500 798 Z M 751 743 L 744 757 L 735 767 L 730 769 L 720 768 L 737 744 L 747 742 Z M 735 745 L 718 768 L 713 769 L 707 765 L 722 743 L 725 741 L 730 741 Z M 269 743 L 272 742 L 283 744 L 291 754 L 285 744 L 290 741 L 297 742 L 301 745 L 313 765 L 305 770 L 302 769 L 297 763 L 300 768 L 299 769 L 289 769 L 282 764 L 269 745 Z M 763 740 L 764 743 L 755 760 L 749 764 L 742 765 L 741 763 L 750 749 L 757 742 Z M 257 740 L 261 741 L 267 747 L 268 746 L 280 764 L 279 766 L 271 764 L 265 759 L 256 741 Z M 695 739 L 695 746 L 687 754 L 684 749 L 685 740 Z M 723 739 L 724 740 L 719 744 L 714 753 L 704 764 L 697 763 L 690 755 L 706 733 L 718 739 Z M 299 739 L 305 738 L 314 733 L 330 754 L 329 757 L 323 763 L 316 764 L 301 743 L 298 741 Z M 574 728 L 576 733 L 576 746 L 581 783 L 587 814 L 611 893 L 611 898 L 607 911 L 601 918 L 587 941 L 581 957 L 577 960 L 571 960 L 561 957 L 552 951 L 546 944 L 539 932 L 533 902 L 535 866 L 564 757 Z M 447 728 L 460 770 L 474 826 L 485 863 L 488 885 L 488 903 L 483 928 L 476 942 L 464 954 L 459 957 L 444 960 L 441 957 L 429 933 L 414 911 L 410 899 L 410 893 L 434 815 L 444 756 L 445 730 Z M 685 716 L 696 717 L 703 726 L 704 732 L 698 741 L 696 738 L 687 739 L 685 737 Z M 329 715 L 337 717 L 335 731 L 336 751 L 334 754 L 328 749 L 325 741 L 326 739 L 332 739 L 323 737 L 325 741 L 324 744 L 316 732 L 316 726 L 318 724 L 320 734 L 319 724 L 323 718 Z M 684 713 L 691 702 L 710 679 L 721 676 L 738 676 L 739 678 L 742 677 L 752 682 L 762 690 L 767 736 L 763 739 L 754 742 L 751 740 L 747 740 L 746 738 L 744 741 L 736 743 L 728 738 L 728 734 L 726 737 L 722 738 L 713 735 L 708 730 L 706 715 L 704 711 L 700 712 L 703 711 L 705 713 L 707 724 L 706 731 L 702 721 L 696 715 L 685 715 Z M 337 713 L 336 715 L 328 714 L 323 716 L 316 724 L 315 721 L 317 711 L 315 719 L 316 729 L 313 729 L 314 725 L 313 730 L 303 738 L 294 738 L 292 735 L 292 738 L 288 741 L 277 742 L 273 740 L 262 741 L 254 736 L 257 716 L 258 691 L 262 687 L 279 677 L 300 676 L 311 679 L 323 695 L 331 703 Z M 434 673 L 466 700 L 502 734 L 505 755 L 505 772 L 503 787 L 495 813 L 481 841 L 433 678 Z M 587 672 L 588 675 L 585 688 L 566 749 L 550 807 L 545 820 L 542 834 L 539 840 L 527 816 L 520 796 L 516 765 L 519 734 L 565 689 Z M 395 655 L 419 664 L 431 671 L 444 722 L 444 737 L 439 777 L 433 810 L 421 855 L 408 894 L 400 882 L 391 864 L 388 854 L 394 874 L 408 899 L 411 908 L 408 916 L 392 943 L 390 944 L 371 918 L 359 894 L 354 880 L 349 856 L 349 818 L 352 783 L 360 737 L 370 710 L 385 678 L 389 664 L 389 659 L 392 655 Z M 581 617 L 549 657 L 537 684 L 529 717 L 526 723 L 519 730 L 501 730 L 491 721 L 484 690 L 472 659 L 461 644 L 438 618 L 443 617 L 485 623 L 528 623 L 560 620 L 580 616 Z M 255 614 L 257 615 L 272 639 L 279 670 L 279 675 L 277 677 L 268 681 L 262 686 L 260 685 L 259 644 L 254 616 Z M 766 613 L 767 616 L 764 627 L 761 654 L 760 686 L 742 675 L 742 670 L 746 649 L 750 637 Z M 613 607 L 615 609 L 626 653 L 606 659 L 586 669 L 557 693 L 530 720 L 529 718 L 540 680 L 549 660 L 555 651 L 586 615 Z M 408 607 L 413 610 L 434 616 L 465 652 L 477 674 L 483 689 L 488 712 L 491 719 L 490 720 L 435 671 L 413 659 L 394 653 L 400 635 L 404 616 Z M 608 577 L 611 605 L 609 607 L 587 612 L 586 611 L 594 594 Z M 413 577 L 431 602 L 435 611 L 434 614 L 414 608 L 409 604 L 412 592 Z M 463 571 L 487 575 L 510 575 L 510 585 L 505 586 L 510 587 L 509 622 L 474 620 L 472 618 L 463 584 Z M 513 522 L 520 525 L 536 528 L 554 527 L 564 523 L 567 525 L 570 539 L 570 555 L 563 569 L 560 572 L 556 571 L 560 573 L 548 619 L 515 622 L 511 620 L 511 588 L 513 586 L 511 585 L 511 575 L 538 575 L 554 572 L 533 575 L 522 575 L 513 573 L 511 571 L 511 525 Z M 510 523 L 510 571 L 508 573 L 492 575 L 461 571 L 455 565 L 450 552 L 452 532 L 455 523 L 471 528 L 485 528 L 508 522 Z M 301 504 L 316 510 L 327 511 L 336 534 L 339 546 L 339 562 L 335 576 L 324 595 L 314 607 L 313 601 L 316 578 L 316 558 L 312 539 L 300 506 Z M 720 503 L 721 505 L 713 525 L 705 558 L 705 581 L 708 606 L 707 608 L 692 588 L 685 575 L 681 559 L 681 549 L 693 511 L 704 510 Z M 677 475 L 678 474 L 687 485 L 697 493 L 704 497 L 719 502 L 715 505 L 705 508 L 693 508 L 682 491 Z M 344 475 L 338 493 L 327 509 L 315 508 L 302 503 L 304 501 L 321 495 L 327 491 L 340 478 L 342 474 Z M 743 472 L 762 490 L 768 499 L 753 513 L 741 530 L 735 547 L 733 572 L 741 615 L 734 576 L 734 558 L 736 546 L 740 534 L 748 520 L 758 508 L 768 499 L 775 511 L 781 537 L 781 565 L 775 591 L 768 605 L 751 630 L 746 641 L 741 661 L 740 674 L 723 674 L 710 677 L 709 675 L 712 658 L 712 632 L 707 598 L 707 556 L 720 510 L 728 494 L 741 473 Z M 278 472 L 288 486 L 299 507 L 307 529 L 314 556 L 314 590 L 309 630 L 309 661 L 312 672 L 311 677 L 298 674 L 281 674 L 280 662 L 274 638 L 251 602 L 246 592 L 240 571 L 240 534 L 245 513 L 250 502 L 253 500 L 269 515 L 275 523 L 285 546 L 287 556 L 287 575 L 279 618 L 287 581 L 287 551 L 283 537 L 278 527 L 271 517 L 253 500 L 253 498 L 259 490 Z M 511 472 L 514 471 L 521 474 L 550 480 L 573 481 L 575 483 L 574 506 L 568 518 L 559 524 L 550 526 L 532 526 L 513 521 L 511 515 Z M 510 472 L 510 519 L 508 521 L 487 526 L 469 526 L 457 522 L 450 515 L 446 504 L 447 481 L 468 480 L 491 476 L 506 471 Z M 617 460 L 620 466 L 621 481 L 618 493 L 612 504 L 604 512 L 596 516 L 575 514 L 574 509 L 576 502 L 576 480 L 578 478 L 590 478 L 600 476 L 609 471 Z M 403 460 L 413 472 L 420 476 L 428 478 L 442 478 L 445 480 L 444 497 L 447 512 L 446 514 L 437 516 L 424 516 L 417 513 L 409 505 L 402 493 L 399 482 L 400 468 Z M 259 437 L 266 445 L 274 450 L 278 470 L 257 491 L 254 476 L 254 461 L 257 438 Z M 762 436 L 764 438 L 767 463 L 766 482 L 764 491 L 743 469 L 746 451 L 755 444 Z M 674 370 L 696 374 L 708 378 L 714 382 L 714 386 L 715 381 L 729 390 L 740 405 L 744 417 L 746 430 L 745 452 L 742 467 L 739 475 L 725 496 L 722 499 L 721 497 L 720 500 L 709 497 L 695 489 L 684 478 L 677 466 L 671 439 L 670 415 L 672 373 Z M 347 370 L 349 375 L 350 389 L 350 433 L 348 451 L 344 466 L 336 479 L 322 492 L 307 499 L 301 500 L 299 496 L 298 484 L 298 439 L 301 414 L 307 385 L 302 406 L 298 434 L 298 499 L 280 471 L 276 453 L 275 430 L 280 408 L 288 394 L 301 384 L 307 381 L 308 383 L 311 379 L 322 375 Z M 658 365 L 659 369 L 657 383 L 649 402 L 645 408 L 628 425 L 613 433 L 601 436 L 590 436 L 550 423 L 537 421 L 513 421 L 511 418 L 511 407 L 513 405 L 576 418 L 598 419 L 611 415 L 626 407 L 639 395 L 646 384 L 651 370 L 652 361 L 654 359 Z M 362 367 L 367 359 L 369 361 L 369 366 L 373 379 L 381 394 L 395 407 L 415 417 L 422 419 L 444 418 L 509 405 L 510 420 L 476 422 L 433 436 L 421 436 L 407 433 L 389 422 L 375 407 L 364 385 Z M 280 352 L 283 366 L 292 388 L 285 395 L 279 406 L 274 424 L 274 446 L 272 447 L 261 438 L 257 431 L 254 422 L 253 407 L 254 396 L 258 384 L 269 365 Z M 741 351 L 760 377 L 767 396 L 766 426 L 761 436 L 750 446 L 747 445 L 748 430 L 744 411 L 738 398 L 730 389 L 730 385 L 737 369 Z M 511 296 L 513 294 L 563 282 L 597 285 L 681 283 L 697 286 L 714 294 L 726 306 L 734 319 L 739 339 L 739 351 L 736 366 L 727 387 L 710 377 L 697 372 L 661 368 L 638 326 L 634 307 L 634 294 L 669 294 L 680 305 L 691 320 L 697 334 L 699 343 L 698 370 L 700 358 L 700 344 L 697 331 L 689 315 L 670 294 L 635 293 L 634 290 L 634 315 L 624 304 L 620 302 L 594 298 L 613 301 L 623 306 L 632 317 L 652 355 L 651 365 L 647 377 L 640 390 L 629 402 L 615 411 L 598 417 L 567 415 L 516 404 L 512 402 L 512 349 L 525 346 L 515 348 L 512 347 L 512 306 L 542 299 L 574 296 L 545 298 L 527 301 L 514 305 L 511 304 Z M 510 295 L 509 305 L 476 298 L 450 297 L 481 299 L 506 304 L 510 306 L 510 347 L 507 348 L 510 349 L 510 401 L 505 404 L 445 416 L 422 417 L 400 408 L 383 393 L 374 378 L 370 365 L 369 355 L 395 309 L 405 302 L 425 298 L 404 301 L 396 305 L 387 316 L 386 311 L 388 292 L 356 293 L 352 294 L 336 310 L 331 317 L 324 333 L 322 342 L 322 360 L 323 339 L 329 322 L 337 310 L 352 294 L 388 294 L 385 321 L 362 366 L 359 368 L 324 372 L 308 378 L 295 386 L 289 376 L 284 362 L 282 340 L 284 329 L 291 312 L 306 295 L 324 286 L 342 283 L 423 285 L 459 282 Z M 554 240 L 558 239 L 605 256 L 630 270 L 646 281 L 644 283 L 587 284 L 566 282 L 564 280 L 559 266 Z M 467 240 L 462 265 L 458 277 L 454 282 L 431 284 L 382 283 L 376 281 L 402 263 L 424 252 L 464 239 Z M 470 202 L 471 201 L 484 217 L 498 227 L 523 227 L 529 223 L 545 207 L 549 201 L 554 249 L 559 270 L 563 280 L 560 282 L 519 292 L 517 291 L 532 259 L 535 232 L 534 248 L 531 261 L 515 293 L 508 294 L 498 290 L 459 281 L 458 279 L 462 270 L 468 240 L 470 222 Z M 559 153 L 562 159 L 562 166 L 559 177 L 554 184 L 553 177 L 555 156 Z M 477 116 L 510 112 L 533 114 L 542 116 L 545 119 L 547 136 L 553 155 L 520 157 L 554 157 L 554 169 L 551 191 L 546 204 L 523 226 L 498 226 L 488 219 L 474 204 L 470 195 L 468 183 L 467 184 L 464 182 L 458 168 L 458 156 L 461 153 L 465 156 L 467 181 L 466 156 L 472 136 L 474 118 Z M 462 111 L 468 101 L 476 93 L 487 87 L 502 83 L 517 83 L 529 86 L 542 93 L 549 100 L 557 113 L 558 131 L 555 151 L 553 151 L 549 140 L 546 120 L 544 116 L 517 112 L 490 113 L 475 116 L 473 119 L 471 135 L 466 151 L 461 130 Z"></path></g>
</svg>